<mxfile host="app.diagrams.net" modified="2023-10-25T09:15:26.967Z" agent="Mozilla/5.0 (Windows NT 10.0; Win64; x64) AppleWebKit/537.36 (KHTML, like Gecko) Chrome/118.0.0.0 Safari/537.36 Edg/118.0.2088.61" etag="Y7mhTktWZ1-cu_nQY2TT" version="22.0.7" type="github">
  <diagram id="C5RBs43oDa-KdzZeNtuy" name="Page-1">
    <mxGraphModel dx="1002" dy="1834" grid="1" gridSize="10" guides="1" tooltips="1" connect="1" arrows="1" fold="1" page="1" pageScale="1" pageWidth="827" pageHeight="1169" math="0" shadow="0">
      <root>
        <mxCell id="WIyWlLk6GJQsqaUBKTNV-0" />
        <mxCell id="WIyWlLk6GJQsqaUBKTNV-1" parent="WIyWlLk6GJQsqaUBKTNV-0" />
        <mxCell id="3JXhcpFCu_tkuBNvv-Zm-3" value="" style="endArrow=classic;html=1;rounded=0;" edge="1" parent="WIyWlLk6GJQsqaUBKTNV-1">
          <mxGeometry width="50" height="50" relative="1" as="geometry">
            <mxPoint x="397.5" y="-307" as="sourcePoint" />
            <mxPoint x="397.5" y="-257" as="targetPoint" />
          </mxGeometry>
        </mxCell>
        <mxCell id="3JXhcpFCu_tkuBNvv-Zm-8" value="checkout msg type" style="rhombus;whiteSpace=wrap;html=1;" vertex="1" parent="WIyWlLk6GJQsqaUBKTNV-1">
          <mxGeometry x="307.5" y="-257" width="180" height="80" as="geometry" />
        </mxCell>
        <mxCell id="3JXhcpFCu_tkuBNvv-Zm-9" value="checkout msg status" style="rhombus;whiteSpace=wrap;html=1;" vertex="1" parent="WIyWlLk6GJQsqaUBKTNV-1">
          <mxGeometry x="306" y="-130" width="180" height="80" as="geometry" />
        </mxCell>
        <mxCell id="3JXhcpFCu_tkuBNvv-Zm-10" value="" style="endArrow=classic;html=1;rounded=0;" edge="1" parent="WIyWlLk6GJQsqaUBKTNV-1">
          <mxGeometry width="50" height="50" relative="1" as="geometry">
            <mxPoint x="396" y="-177" as="sourcePoint" />
            <mxPoint x="396" y="-127" as="targetPoint" />
          </mxGeometry>
        </mxCell>
        <mxCell id="3JXhcpFCu_tkuBNvv-Zm-11" value="YES" style="edgeLabel;html=1;align=center;verticalAlign=middle;resizable=0;points=[];" vertex="1" connectable="0" parent="3JXhcpFCu_tkuBNvv-Zm-10">
          <mxGeometry x="-0.3024" y="-1" relative="1" as="geometry">
            <mxPoint as="offset" />
          </mxGeometry>
        </mxCell>
        <mxCell id="3JXhcpFCu_tkuBNvv-Zm-12" value="" style="endArrow=classic;html=1;rounded=0;" edge="1" parent="WIyWlLk6GJQsqaUBKTNV-1">
          <mxGeometry width="50" height="50" relative="1" as="geometry">
            <mxPoint x="397" y="-50" as="sourcePoint" />
            <mxPoint x="397" as="targetPoint" />
          </mxGeometry>
        </mxCell>
        <mxCell id="3JXhcpFCu_tkuBNvv-Zm-13" value="YES" style="edgeLabel;html=1;align=center;verticalAlign=middle;resizable=0;points=[];" vertex="1" connectable="0" parent="3JXhcpFCu_tkuBNvv-Zm-12">
          <mxGeometry x="-0.432" relative="1" as="geometry">
            <mxPoint as="offset" />
          </mxGeometry>
        </mxCell>
        <mxCell id="3JXhcpFCu_tkuBNvv-Zm-14" value="msg长度是否有效" style="rhombus;whiteSpace=wrap;html=1;" vertex="1" parent="WIyWlLk6GJQsqaUBKTNV-1">
          <mxGeometry x="307.25" width="180" height="80" as="geometry" />
        </mxCell>
        <mxCell id="3JXhcpFCu_tkuBNvv-Zm-16" value="" style="endArrow=classic;html=1;rounded=0;" edge="1" parent="WIyWlLk6GJQsqaUBKTNV-1">
          <mxGeometry width="50" height="50" relative="1" as="geometry">
            <mxPoint x="395.75" y="80" as="sourcePoint" />
            <mxPoint x="395.75" y="130" as="targetPoint" />
          </mxGeometry>
        </mxCell>
        <mxCell id="3JXhcpFCu_tkuBNvv-Zm-17" value="YES" style="edgeLabel;html=1;align=center;verticalAlign=middle;resizable=0;points=[];" vertex="1" connectable="0" parent="3JXhcpFCu_tkuBNvv-Zm-16">
          <mxGeometry x="-0.3024" y="-1" relative="1" as="geometry">
            <mxPoint as="offset" />
          </mxGeometry>
        </mxCell>
        <mxCell id="3JXhcpFCu_tkuBNvv-Zm-20" value="获取数据" style="rhombus;whiteSpace=wrap;html=1;" vertex="1" parent="WIyWlLk6GJQsqaUBKTNV-1">
          <mxGeometry x="305.75" y="130" width="180" height="80" as="geometry" />
        </mxCell>
        <mxCell id="3JXhcpFCu_tkuBNvv-Zm-21" value="" style="endArrow=classic;html=1;rounded=0;" edge="1" parent="WIyWlLk6GJQsqaUBKTNV-1">
          <mxGeometry width="50" height="50" relative="1" as="geometry">
            <mxPoint x="395.25" y="210" as="sourcePoint" />
            <mxPoint x="395.25" y="260" as="targetPoint" />
          </mxGeometry>
        </mxCell>
        <mxCell id="3JXhcpFCu_tkuBNvv-Zm-22" value="YES" style="edgeLabel;html=1;align=center;verticalAlign=middle;resizable=0;points=[];" vertex="1" connectable="0" parent="3JXhcpFCu_tkuBNvv-Zm-21">
          <mxGeometry x="-0.432" relative="1" as="geometry">
            <mxPoint as="offset" />
          </mxGeometry>
        </mxCell>
        <mxCell id="3JXhcpFCu_tkuBNvv-Zm-23" value="数据是否有效" style="rhombus;whiteSpace=wrap;html=1;" vertex="1" parent="WIyWlLk6GJQsqaUBKTNV-1">
          <mxGeometry x="305.75" y="263" width="180" height="80" as="geometry" />
        </mxCell>
        <mxCell id="3JXhcpFCu_tkuBNvv-Zm-32" value="结束" style="rounded=1;whiteSpace=wrap;html=1;fontSize=12;glass=0;strokeWidth=1;shadow=0;" vertex="1" parent="WIyWlLk6GJQsqaUBKTNV-1">
          <mxGeometry x="336.75" y="933" width="120" height="40" as="geometry" />
        </mxCell>
        <mxCell id="3JXhcpFCu_tkuBNvv-Zm-33" value="" style="endArrow=classic;html=1;rounded=0;exitX=0.5;exitY=1;exitDx=0;exitDy=0;" edge="1" parent="WIyWlLk6GJQsqaUBKTNV-1">
          <mxGeometry width="50" height="50" relative="1" as="geometry">
            <mxPoint x="545" y="694" as="sourcePoint" />
            <mxPoint x="397.25" y="934" as="targetPoint" />
            <Array as="points">
              <mxPoint x="545" y="880" />
              <mxPoint x="397" y="880" />
            </Array>
          </mxGeometry>
        </mxCell>
        <mxCell id="3JXhcpFCu_tkuBNvv-Zm-34" value="" style="endArrow=classic;html=1;rounded=0;entryX=1;entryY=0.5;entryDx=0;entryDy=0;exitX=1;exitY=0.5;exitDx=0;exitDy=0;" edge="1" parent="WIyWlLk6GJQsqaUBKTNV-1" source="3JXhcpFCu_tkuBNvv-Zm-8" target="3JXhcpFCu_tkuBNvv-Zm-32">
          <mxGeometry width="50" height="50" relative="1" as="geometry">
            <mxPoint x="640" y="-220" as="sourcePoint" />
            <mxPoint x="640" y="670" as="targetPoint" />
            <Array as="points">
              <mxPoint x="640" y="-220" />
              <mxPoint x="640" y="953" />
            </Array>
          </mxGeometry>
        </mxCell>
        <mxCell id="3JXhcpFCu_tkuBNvv-Zm-35" value="NO" style="edgeLabel;html=1;align=center;verticalAlign=middle;resizable=0;points=[];" vertex="1" connectable="0" parent="3JXhcpFCu_tkuBNvv-Zm-34">
          <mxGeometry x="-0.8987" y="1" relative="1" as="geometry">
            <mxPoint as="offset" />
          </mxGeometry>
        </mxCell>
        <mxCell id="3JXhcpFCu_tkuBNvv-Zm-36" value="" style="endArrow=classic;html=1;rounded=0;entryX=1;entryY=0.5;entryDx=0;entryDy=0;exitX=1;exitY=0.5;exitDx=0;exitDy=0;" edge="1" parent="WIyWlLk6GJQsqaUBKTNV-1" source="3JXhcpFCu_tkuBNvv-Zm-9" target="3JXhcpFCu_tkuBNvv-Zm-32">
          <mxGeometry width="50" height="50" relative="1" as="geometry">
            <mxPoint x="498" y="-207" as="sourcePoint" />
            <mxPoint x="467" y="1080" as="targetPoint" />
            <Array as="points">
              <mxPoint x="640" y="-90" />
              <mxPoint x="640" y="953" />
            </Array>
          </mxGeometry>
        </mxCell>
        <mxCell id="3JXhcpFCu_tkuBNvv-Zm-37" value="NO" style="edgeLabel;html=1;align=center;verticalAlign=middle;resizable=0;points=[];" vertex="1" connectable="0" parent="3JXhcpFCu_tkuBNvv-Zm-36">
          <mxGeometry x="-0.8987" y="1" relative="1" as="geometry">
            <mxPoint as="offset" />
          </mxGeometry>
        </mxCell>
        <mxCell id="3JXhcpFCu_tkuBNvv-Zm-38" value="" style="endArrow=none;html=1;rounded=0;exitX=1;exitY=0.5;exitDx=0;exitDy=0;" edge="1" parent="WIyWlLk6GJQsqaUBKTNV-1" source="3JXhcpFCu_tkuBNvv-Zm-14">
          <mxGeometry width="50" height="50" relative="1" as="geometry">
            <mxPoint x="490" y="70" as="sourcePoint" />
            <mxPoint x="640" y="40" as="targetPoint" />
          </mxGeometry>
        </mxCell>
        <mxCell id="3JXhcpFCu_tkuBNvv-Zm-39" value="NO" style="edgeLabel;html=1;align=center;verticalAlign=middle;resizable=0;points=[];" vertex="1" connectable="0" parent="3JXhcpFCu_tkuBNvv-Zm-38">
          <mxGeometry x="-0.0894" y="-1" relative="1" as="geometry">
            <mxPoint as="offset" />
          </mxGeometry>
        </mxCell>
        <mxCell id="3JXhcpFCu_tkuBNvv-Zm-42" value="" style="endArrow=none;html=1;rounded=0;exitX=1;exitY=0.5;exitDx=0;exitDy=0;" edge="1" parent="WIyWlLk6GJQsqaUBKTNV-1">
          <mxGeometry width="50" height="50" relative="1" as="geometry">
            <mxPoint x="486" y="169.5" as="sourcePoint" />
            <mxPoint x="639" y="169.5" as="targetPoint" />
          </mxGeometry>
        </mxCell>
        <mxCell id="3JXhcpFCu_tkuBNvv-Zm-43" value="NO" style="edgeLabel;html=1;align=center;verticalAlign=middle;resizable=0;points=[];" vertex="1" connectable="0" parent="3JXhcpFCu_tkuBNvv-Zm-42">
          <mxGeometry x="-0.0894" y="-1" relative="1" as="geometry">
            <mxPoint as="offset" />
          </mxGeometry>
        </mxCell>
        <mxCell id="3JXhcpFCu_tkuBNvv-Zm-44" value="" style="endArrow=none;html=1;rounded=0;exitX=1;exitY=0.5;exitDx=0;exitDy=0;" edge="1" parent="WIyWlLk6GJQsqaUBKTNV-1">
          <mxGeometry width="50" height="50" relative="1" as="geometry">
            <mxPoint x="486" y="303.5" as="sourcePoint" />
            <mxPoint x="639" y="303.5" as="targetPoint" />
          </mxGeometry>
        </mxCell>
        <mxCell id="3JXhcpFCu_tkuBNvv-Zm-45" value="NO" style="edgeLabel;html=1;align=center;verticalAlign=middle;resizable=0;points=[];" vertex="1" connectable="0" parent="3JXhcpFCu_tkuBNvv-Zm-44">
          <mxGeometry x="-0.0894" y="-1" relative="1" as="geometry">
            <mxPoint as="offset" />
          </mxGeometry>
        </mxCell>
        <mxCell id="3JXhcpFCu_tkuBNvv-Zm-51" value="profl模块FIFO处理profl_proc中profl_proc_theme" style="rounded=1;whiteSpace=wrap;html=1;fontSize=12;glass=0;strokeWidth=1;shadow=0;" vertex="1" parent="WIyWlLk6GJQsqaUBKTNV-1">
          <mxGeometry x="138" y="473" width="190" height="40" as="geometry" />
        </mxCell>
        <mxCell id="3JXhcpFCu_tkuBNvv-Zm-52" value="" style="endArrow=classic;html=1;rounded=0;entryX=0.5;entryY=0;entryDx=0;entryDy=0;" edge="1" parent="WIyWlLk6GJQsqaUBKTNV-1" target="3JXhcpFCu_tkuBNvv-Zm-51">
          <mxGeometry width="50" height="50" relative="1" as="geometry">
            <mxPoint x="396" y="396" as="sourcePoint" />
            <mxPoint x="396" y="446" as="targetPoint" />
            <Array as="points">
              <mxPoint x="396" y="433" />
              <mxPoint x="233" y="433" />
            </Array>
          </mxGeometry>
        </mxCell>
        <mxCell id="3JXhcpFCu_tkuBNvv-Zm-54" value="" style="endArrow=classic;html=1;rounded=0;entryX=0.5;entryY=0;entryDx=0;entryDy=0;exitX=0.5;exitY=1;exitDx=0;exitDy=0;" edge="1" parent="WIyWlLk6GJQsqaUBKTNV-1" target="3JXhcpFCu_tkuBNvv-Zm-60">
          <mxGeometry width="50" height="50" relative="1" as="geometry">
            <mxPoint x="396.25" y="343" as="sourcePoint" />
            <mxPoint x="395.5" y="538" as="targetPoint" />
            <Array as="points">
              <mxPoint x="396" y="433" />
              <mxPoint x="543" y="433" />
            </Array>
          </mxGeometry>
        </mxCell>
        <mxCell id="3JXhcpFCu_tkuBNvv-Zm-67" value="YES" style="edgeLabel;html=1;align=center;verticalAlign=middle;resizable=0;points=[];" vertex="1" connectable="0" parent="3JXhcpFCu_tkuBNvv-Zm-54">
          <mxGeometry x="-0.6886" y="-1" relative="1" as="geometry">
            <mxPoint as="offset" />
          </mxGeometry>
        </mxCell>
        <mxCell id="3JXhcpFCu_tkuBNvv-Zm-55" value="kanzi显示" style="rounded=1;whiteSpace=wrap;html=1;fontSize=12;glass=0;strokeWidth=1;shadow=0;" vertex="1" parent="WIyWlLk6GJQsqaUBKTNV-1">
          <mxGeometry x="178" y="785" width="120" height="40" as="geometry" />
        </mxCell>
        <mxCell id="3JXhcpFCu_tkuBNvv-Zm-56" value="" style="endArrow=classic;html=1;rounded=0;" edge="1" parent="WIyWlLk6GJQsqaUBKTNV-1">
          <mxGeometry width="50" height="50" relative="1" as="geometry">
            <mxPoint x="236.5" y="513" as="sourcePoint" />
            <mxPoint x="236.5" y="563" as="targetPoint" />
          </mxGeometry>
        </mxCell>
        <mxCell id="3JXhcpFCu_tkuBNvv-Zm-57" value="profl_storg_save_theme" style="rounded=1;whiteSpace=wrap;html=1;fontSize=12;glass=0;strokeWidth=1;shadow=0;" vertex="1" parent="WIyWlLk6GJQsqaUBKTNV-1">
          <mxGeometry x="468" y="563" width="150" height="40" as="geometry" />
        </mxCell>
        <mxCell id="3JXhcpFCu_tkuBNvv-Zm-58" value="存储到系统数据库" style="rounded=1;whiteSpace=wrap;html=1;fontSize=12;glass=0;strokeWidth=1;shadow=0;" vertex="1" parent="WIyWlLk6GJQsqaUBKTNV-1">
          <mxGeometry x="483" y="654" width="120" height="40" as="geometry" />
        </mxCell>
        <mxCell id="3JXhcpFCu_tkuBNvv-Zm-59" value="" style="endArrow=classic;html=1;rounded=0;" edge="1" parent="WIyWlLk6GJQsqaUBKTNV-1">
          <mxGeometry width="50" height="50" relative="1" as="geometry">
            <mxPoint x="543.5" y="604" as="sourcePoint" />
            <mxPoint x="543.5" y="654" as="targetPoint" />
          </mxGeometry>
        </mxCell>
        <mxCell id="3JXhcpFCu_tkuBNvv-Zm-60" value="gua_profl_save_theme" style="rounded=1;whiteSpace=wrap;html=1;fontSize=12;glass=0;strokeWidth=1;shadow=0;" vertex="1" parent="WIyWlLk6GJQsqaUBKTNV-1">
          <mxGeometry x="468" y="473" width="150" height="40" as="geometry" />
        </mxCell>
        <mxCell id="3JXhcpFCu_tkuBNvv-Zm-61" value="" style="endArrow=classic;html=1;rounded=0;" edge="1" parent="WIyWlLk6GJQsqaUBKTNV-1">
          <mxGeometry width="50" height="50" relative="1" as="geometry">
            <mxPoint x="542.5" y="513" as="sourcePoint" />
            <mxPoint x="542.5" y="563" as="targetPoint" />
          </mxGeometry>
        </mxCell>
        <mxCell id="3JXhcpFCu_tkuBNvv-Zm-62" value="view模块FIFO处理view_proc中GUA_MSG_VIEW_CATALOG_FECMD_THEME" style="rounded=1;whiteSpace=wrap;html=1;fontSize=12;glass=0;strokeWidth=1;shadow=0;" vertex="1" parent="WIyWlLk6GJQsqaUBKTNV-1">
          <mxGeometry x="96" y="563" width="280" height="40" as="geometry" />
        </mxCell>
        <mxCell id="3JXhcpFCu_tkuBNvv-Zm-63" value="" style="endArrow=classic;html=1;rounded=0;" edge="1" parent="WIyWlLk6GJQsqaUBKTNV-1">
          <mxGeometry width="50" height="50" relative="1" as="geometry">
            <mxPoint x="235.5" y="603" as="sourcePoint" />
            <mxPoint x="235.5" y="653" as="targetPoint" />
          </mxGeometry>
        </mxCell>
        <mxCell id="3JXhcpFCu_tkuBNvv-Zm-64" value="" style="endArrow=classic;html=1;rounded=0;" edge="1" parent="WIyWlLk6GJQsqaUBKTNV-1">
          <mxGeometry width="50" height="50" relative="1" as="geometry">
            <mxPoint x="236.5" y="735" as="sourcePoint" />
            <mxPoint x="236.5" y="785" as="targetPoint" />
          </mxGeometry>
        </mxCell>
        <mxCell id="3JXhcpFCu_tkuBNvv-Zm-69" value="YES" style="edgeLabel;html=1;align=center;verticalAlign=middle;resizable=0;points=[];" vertex="1" connectable="0" parent="3JXhcpFCu_tkuBNvv-Zm-64">
          <mxGeometry x="-0.248" y="-2" relative="1" as="geometry">
            <mxPoint as="offset" />
          </mxGeometry>
        </mxCell>
        <mxCell id="3JXhcpFCu_tkuBNvv-Zm-66" value="API回调cb_QS_MSG_VI_CC_F_FROM_CENTER_ThemeMode" style="rounded=1;whiteSpace=wrap;html=1;fontSize=12;glass=0;strokeWidth=1;shadow=0;" vertex="1" parent="WIyWlLk6GJQsqaUBKTNV-1">
          <mxGeometry x="239" y="-348" width="318.5" height="40" as="geometry" />
        </mxCell>
        <mxCell id="3JXhcpFCu_tkuBNvv-Zm-68" value="gua_cb_get_fe_fecmd获取callback" style="rhombus;whiteSpace=wrap;html=1;" vertex="1" parent="WIyWlLk6GJQsqaUBKTNV-1">
          <mxGeometry x="146" y="654" width="180" height="80" as="geometry" />
        </mxCell>
        <mxCell id="3JXhcpFCu_tkuBNvv-Zm-72" value="" style="endArrow=classic;html=1;rounded=0;exitX=0;exitY=0.5;exitDx=0;exitDy=0;entryX=0;entryY=0.5;entryDx=0;entryDy=0;" edge="1" parent="WIyWlLk6GJQsqaUBKTNV-1" source="3JXhcpFCu_tkuBNvv-Zm-68" target="3JXhcpFCu_tkuBNvv-Zm-32">
          <mxGeometry width="50" height="50" relative="1" as="geometry">
            <mxPoint x="405.25" y="894" as="sourcePoint" />
            <mxPoint x="330" y="950" as="targetPoint" />
            <Array as="points">
              <mxPoint x="90" y="694" />
              <mxPoint x="90" y="953" />
            </Array>
          </mxGeometry>
        </mxCell>
        <mxCell id="3JXhcpFCu_tkuBNvv-Zm-79" value="NO" style="edgeLabel;html=1;align=center;verticalAlign=middle;resizable=0;points=[];" vertex="1" connectable="0" parent="3JXhcpFCu_tkuBNvv-Zm-72">
          <mxGeometry x="-0.9032" y="-4" relative="1" as="geometry">
            <mxPoint as="offset" />
          </mxGeometry>
        </mxCell>
        <mxCell id="3JXhcpFCu_tkuBNvv-Zm-77" value="" style="endArrow=classic;html=1;rounded=0;exitX=0.5;exitY=1;exitDx=0;exitDy=0;entryX=0.5;entryY=0;entryDx=0;entryDy=0;" edge="1" parent="WIyWlLk6GJQsqaUBKTNV-1" source="3JXhcpFCu_tkuBNvv-Zm-55" target="3JXhcpFCu_tkuBNvv-Zm-32">
          <mxGeometry width="50" height="50" relative="1" as="geometry">
            <mxPoint x="553" y="704" as="sourcePoint" />
            <mxPoint x="360" y="920" as="targetPoint" />
            <Array as="points">
              <mxPoint x="238" y="880" />
              <mxPoint x="397" y="880" />
            </Array>
          </mxGeometry>
        </mxCell>
        <mxCell id="3JXhcpFCu_tkuBNvv-Zm-80" value="开机启动gua_profl_start" style="rounded=1;whiteSpace=wrap;html=1;fontSize=12;glass=0;strokeWidth=1;shadow=0;" vertex="1" parent="WIyWlLk6GJQsqaUBKTNV-1">
          <mxGeometry x="328.5" y="1250" width="176.5" height="40" as="geometry" />
        </mxCell>
        <mxCell id="3JXhcpFCu_tkuBNvv-Zm-81" value="profl模块FIFO处理profl_proc中profl_proc_theme" style="rounded=1;whiteSpace=wrap;html=1;fontSize=12;glass=0;strokeWidth=1;shadow=0;" vertex="1" parent="WIyWlLk6GJQsqaUBKTNV-1">
          <mxGeometry x="320.5" y="1911" width="190" height="40" as="geometry" />
        </mxCell>
        <mxCell id="3JXhcpFCu_tkuBNvv-Zm-82" value="与kanzi通信接口gua_cb_get_fe_fecmd&lt;br&gt;回调数据GUA_FECMD_ID_THEME" style="rounded=1;whiteSpace=wrap;html=1;fontSize=12;glass=0;strokeWidth=1;shadow=0;" vertex="1" parent="WIyWlLk6GJQsqaUBKTNV-1">
          <mxGeometry x="286" y="2095" width="258" height="40" as="geometry" />
        </mxCell>
        <mxCell id="3JXhcpFCu_tkuBNvv-Zm-83" value="kanzi显示" style="rounded=1;whiteSpace=wrap;html=1;fontSize=12;glass=0;strokeWidth=1;shadow=0;" vertex="1" parent="WIyWlLk6GJQsqaUBKTNV-1">
          <mxGeometry x="354" y="2186" width="120" height="40" as="geometry" />
        </mxCell>
        <mxCell id="3JXhcpFCu_tkuBNvv-Zm-84" value="view模块FIFO处理view_proc中GUA_MSG_VIEW_CATALOG_FECMD_THEME" style="rounded=1;whiteSpace=wrap;html=1;fontSize=12;glass=0;strokeWidth=1;shadow=0;" vertex="1" parent="WIyWlLk6GJQsqaUBKTNV-1">
          <mxGeometry x="276" y="2003" width="280" height="40" as="geometry" />
        </mxCell>
        <mxCell id="3JXhcpFCu_tkuBNvv-Zm-85" value="load_theme" style="rounded=1;whiteSpace=wrap;html=1;fontSize=12;glass=0;strokeWidth=1;shadow=0;" vertex="1" parent="WIyWlLk6GJQsqaUBKTNV-1">
          <mxGeometry x="334.5" y="1600" width="170" height="40" as="geometry" />
        </mxCell>
        <mxCell id="3JXhcpFCu_tkuBNvv-Zm-87" value="" style="endArrow=classic;html=1;rounded=0;" edge="1" parent="WIyWlLk6GJQsqaUBKTNV-1">
          <mxGeometry width="50" height="50" relative="1" as="geometry">
            <mxPoint x="419" y="1290" as="sourcePoint" />
            <mxPoint x="419" y="1340" as="targetPoint" />
          </mxGeometry>
        </mxCell>
        <mxCell id="3JXhcpFCu_tkuBNvv-Zm-88" value="" style="endArrow=classic;html=1;rounded=0;" edge="1" parent="WIyWlLk6GJQsqaUBKTNV-1">
          <mxGeometry width="50" height="50" relative="1" as="geometry">
            <mxPoint x="419" y="1640" as="sourcePoint" />
            <mxPoint x="419" y="1690" as="targetPoint" />
          </mxGeometry>
        </mxCell>
        <mxCell id="3JXhcpFCu_tkuBNvv-Zm-89" value="" style="endArrow=classic;html=1;rounded=0;" edge="1" parent="WIyWlLk6GJQsqaUBKTNV-1">
          <mxGeometry width="50" height="50" relative="1" as="geometry">
            <mxPoint x="418.25" y="1861" as="sourcePoint" />
            <mxPoint x="418.25" y="1911" as="targetPoint" />
          </mxGeometry>
        </mxCell>
        <mxCell id="3JXhcpFCu_tkuBNvv-Zm-90" value="" style="endArrow=classic;html=1;rounded=0;" edge="1" parent="WIyWlLk6GJQsqaUBKTNV-1">
          <mxGeometry width="50" height="50" relative="1" as="geometry">
            <mxPoint x="417" y="1952" as="sourcePoint" />
            <mxPoint x="417" y="2002" as="targetPoint" />
          </mxGeometry>
        </mxCell>
        <mxCell id="3JXhcpFCu_tkuBNvv-Zm-91" value="" style="endArrow=classic;html=1;rounded=0;" edge="1" parent="WIyWlLk6GJQsqaUBKTNV-1">
          <mxGeometry width="50" height="50" relative="1" as="geometry">
            <mxPoint x="415.5" y="2043" as="sourcePoint" />
            <mxPoint x="415.5" y="2093" as="targetPoint" />
          </mxGeometry>
        </mxCell>
        <mxCell id="3JXhcpFCu_tkuBNvv-Zm-92" value="" style="endArrow=classic;html=1;rounded=0;" edge="1" parent="WIyWlLk6GJQsqaUBKTNV-1">
          <mxGeometry width="50" height="50" relative="1" as="geometry">
            <mxPoint x="413.5" y="2135" as="sourcePoint" />
            <mxPoint x="413.5" y="2185" as="targetPoint" />
          </mxGeometry>
        </mxCell>
        <mxCell id="3JXhcpFCu_tkuBNvv-Zm-94" value="创建线程" style="rhombus;whiteSpace=wrap;html=1;" vertex="1" parent="WIyWlLk6GJQsqaUBKTNV-1">
          <mxGeometry x="329.5" y="1340" width="180" height="80" as="geometry" />
        </mxCell>
        <mxCell id="3JXhcpFCu_tkuBNvv-Zm-95" value="" style="endArrow=classic;html=1;rounded=0;" edge="1" parent="WIyWlLk6GJQsqaUBKTNV-1">
          <mxGeometry width="50" height="50" relative="1" as="geometry">
            <mxPoint x="419" y="1420" as="sourcePoint" />
            <mxPoint x="419" y="1470" as="targetPoint" />
          </mxGeometry>
        </mxCell>
        <mxCell id="3JXhcpFCu_tkuBNvv-Zm-96" value="成功" style="edgeLabel;html=1;align=center;verticalAlign=middle;resizable=0;points=[];" vertex="1" connectable="0" parent="3JXhcpFCu_tkuBNvv-Zm-95">
          <mxGeometry x="-0.088" y="-2" relative="1" as="geometry">
            <mxPoint as="offset" />
          </mxGeometry>
        </mxCell>
        <mxCell id="3JXhcpFCu_tkuBNvv-Zm-97" value="结束" style="rounded=1;whiteSpace=wrap;html=1;fontSize=12;glass=0;strokeWidth=1;shadow=0;" vertex="1" parent="WIyWlLk6GJQsqaUBKTNV-1">
          <mxGeometry x="354" y="2278" width="120" height="40" as="geometry" />
        </mxCell>
        <mxCell id="3JXhcpFCu_tkuBNvv-Zm-98" value="" style="endArrow=classic;html=1;rounded=0;" edge="1" parent="WIyWlLk6GJQsqaUBKTNV-1">
          <mxGeometry width="50" height="50" relative="1" as="geometry">
            <mxPoint x="414.5" y="2226" as="sourcePoint" />
            <mxPoint x="414.5" y="2276" as="targetPoint" />
          </mxGeometry>
        </mxCell>
        <mxCell id="3JXhcpFCu_tkuBNvv-Zm-99" value="" style="endArrow=classic;html=1;rounded=0;exitX=1;exitY=0.5;exitDx=0;exitDy=0;entryX=1;entryY=0.5;entryDx=0;entryDy=0;" edge="1" parent="WIyWlLk6GJQsqaUBKTNV-1" source="3JXhcpFCu_tkuBNvv-Zm-94" target="3JXhcpFCu_tkuBNvv-Zm-97">
          <mxGeometry width="50" height="50" relative="1" as="geometry">
            <mxPoint x="580" y="1410" as="sourcePoint" />
            <mxPoint x="670" y="1790" as="targetPoint" />
            <Array as="points">
              <mxPoint x="680" y="1380" />
              <mxPoint x="680" y="2300" />
            </Array>
          </mxGeometry>
        </mxCell>
        <mxCell id="3JXhcpFCu_tkuBNvv-Zm-100" value="失败" style="edgeLabel;html=1;align=center;verticalAlign=middle;resizable=0;points=[];" vertex="1" connectable="0" parent="3JXhcpFCu_tkuBNvv-Zm-99">
          <mxGeometry x="-0.8592" y="1" relative="1" as="geometry">
            <mxPoint as="offset" />
          </mxGeometry>
        </mxCell>
        <mxCell id="3JXhcpFCu_tkuBNvv-Zm-102" value="pthread_detach" style="rhombus;whiteSpace=wrap;html=1;" vertex="1" parent="WIyWlLk6GJQsqaUBKTNV-1">
          <mxGeometry x="329.5" y="1470" width="180" height="80" as="geometry" />
        </mxCell>
        <mxCell id="3JXhcpFCu_tkuBNvv-Zm-103" value="" style="endArrow=classic;html=1;rounded=0;" edge="1" parent="WIyWlLk6GJQsqaUBKTNV-1">
          <mxGeometry width="50" height="50" relative="1" as="geometry">
            <mxPoint x="419" y="1550" as="sourcePoint" />
            <mxPoint x="419" y="1600" as="targetPoint" />
          </mxGeometry>
        </mxCell>
        <mxCell id="3JXhcpFCu_tkuBNvv-Zm-104" value="成功" style="edgeLabel;html=1;align=center;verticalAlign=middle;resizable=0;points=[];" vertex="1" connectable="0" parent="3JXhcpFCu_tkuBNvv-Zm-103">
          <mxGeometry x="-0.088" y="-2" relative="1" as="geometry">
            <mxPoint as="offset" />
          </mxGeometry>
        </mxCell>
        <mxCell id="3JXhcpFCu_tkuBNvv-Zm-105" value="" style="endArrow=none;html=1;rounded=0;" edge="1" parent="WIyWlLk6GJQsqaUBKTNV-1">
          <mxGeometry width="50" height="50" relative="1" as="geometry">
            <mxPoint x="510" y="1510" as="sourcePoint" />
            <mxPoint x="680" y="1510" as="targetPoint" />
          </mxGeometry>
        </mxCell>
        <mxCell id="3JXhcpFCu_tkuBNvv-Zm-106" value="失败" style="edgeLabel;html=1;align=center;verticalAlign=middle;resizable=0;points=[];" vertex="1" connectable="0" parent="3JXhcpFCu_tkuBNvv-Zm-105">
          <mxGeometry x="0.0047" y="3" relative="1" as="geometry">
            <mxPoint as="offset" />
          </mxGeometry>
        </mxCell>
        <mxCell id="3JXhcpFCu_tkuBNvv-Zm-107" value="profl_storg_load_theme&lt;br&gt;读取数据库数据" style="rhombus;whiteSpace=wrap;html=1;" vertex="1" parent="WIyWlLk6GJQsqaUBKTNV-1">
          <mxGeometry x="329.5" y="1690" width="180" height="80" as="geometry" />
        </mxCell>
        <mxCell id="3JXhcpFCu_tkuBNvv-Zm-108" value="" style="endArrow=classic;html=1;rounded=0;" edge="1" parent="WIyWlLk6GJQsqaUBKTNV-1">
          <mxGeometry width="50" height="50" relative="1" as="geometry">
            <mxPoint x="419" y="1770" as="sourcePoint" />
            <mxPoint x="419" y="1820" as="targetPoint" />
          </mxGeometry>
        </mxCell>
        <mxCell id="3JXhcpFCu_tkuBNvv-Zm-109" value="成功" style="edgeLabel;html=1;align=center;verticalAlign=middle;resizable=0;points=[];" vertex="1" connectable="0" parent="3JXhcpFCu_tkuBNvv-Zm-108">
          <mxGeometry x="-0.272" y="-2" relative="1" as="geometry">
            <mxPoint as="offset" />
          </mxGeometry>
        </mxCell>
        <mxCell id="3JXhcpFCu_tkuBNvv-Zm-110" value="" style="endArrow=none;html=1;rounded=0;" edge="1" parent="WIyWlLk6GJQsqaUBKTNV-1">
          <mxGeometry width="50" height="50" relative="1" as="geometry">
            <mxPoint x="509.5" y="1729.5" as="sourcePoint" />
            <mxPoint x="679.5" y="1729.5" as="targetPoint" />
          </mxGeometry>
        </mxCell>
        <mxCell id="3JXhcpFCu_tkuBNvv-Zm-111" value="失败" style="edgeLabel;html=1;align=center;verticalAlign=middle;resizable=0;points=[];" vertex="1" connectable="0" parent="3JXhcpFCu_tkuBNvv-Zm-110">
          <mxGeometry x="0.0047" y="3" relative="1" as="geometry">
            <mxPoint as="offset" />
          </mxGeometry>
        </mxCell>
        <mxCell id="3JXhcpFCu_tkuBNvv-Zm-112" value="保存数据到全局变量" style="rounded=1;whiteSpace=wrap;html=1;fontSize=12;glass=0;strokeWidth=1;shadow=0;" vertex="1" parent="WIyWlLk6GJQsqaUBKTNV-1">
          <mxGeometry x="326" y="1820" width="190" height="40" as="geometry" />
        </mxCell>
        <mxCell id="3JXhcpFCu_tkuBNvv-Zm-113" value="arbi模块处理arbi_proc中保养信息透传" style="rounded=1;whiteSpace=wrap;html=1;fontSize=12;glass=0;strokeWidth=1;shadow=0;" vertex="1" parent="WIyWlLk6GJQsqaUBKTNV-1">
          <mxGeometry x="328.75" y="2589" width="138.5" height="40" as="geometry" />
        </mxCell>
        <mxCell id="3JXhcpFCu_tkuBNvv-Zm-114" value="与kanzi通信接口" style="rounded=1;whiteSpace=wrap;html=1;fontSize=12;glass=0;strokeWidth=1;shadow=0;" vertex="1" parent="WIyWlLk6GJQsqaUBKTNV-1">
          <mxGeometry x="321.5" y="2902" width="153" height="40" as="geometry" />
        </mxCell>
        <mxCell id="3JXhcpFCu_tkuBNvv-Zm-115" value="view模块FIFO处理view_proc中对保养信息进行处理" style="rounded=1;whiteSpace=wrap;html=1;fontSize=12;glass=0;strokeWidth=1;shadow=0;" vertex="1" parent="WIyWlLk6GJQsqaUBKTNV-1">
          <mxGeometry x="258.5" y="2810" width="280" height="40" as="geometry" />
        </mxCell>
        <mxCell id="3JXhcpFCu_tkuBNvv-Zm-116" value="HU_VehicleMaintenanceReminder" style="rounded=1;whiteSpace=wrap;html=1;fontSize=12;glass=0;strokeWidth=1;shadow=0;" vertex="1" parent="WIyWlLk6GJQsqaUBKTNV-1">
          <mxGeometry x="289.25" y="2500" width="218.5" height="40" as="geometry" />
        </mxCell>
        <mxCell id="3JXhcpFCu_tkuBNvv-Zm-117" value="" style="endArrow=classic;html=1;rounded=0;" edge="1" parent="WIyWlLk6GJQsqaUBKTNV-1">
          <mxGeometry width="50" height="50" relative="1" as="geometry">
            <mxPoint x="398.75" y="2540" as="sourcePoint" />
            <mxPoint x="398.75" y="2590" as="targetPoint" />
          </mxGeometry>
        </mxCell>
        <mxCell id="3JXhcpFCu_tkuBNvv-Zm-118" value="" style="endArrow=classic;html=1;rounded=0;" edge="1" parent="WIyWlLk6GJQsqaUBKTNV-1">
          <mxGeometry width="50" height="50" relative="1" as="geometry">
            <mxPoint x="397.5" y="2631" as="sourcePoint" />
            <mxPoint x="397.5" y="2681" as="targetPoint" />
          </mxGeometry>
        </mxCell>
        <mxCell id="3JXhcpFCu_tkuBNvv-Zm-119" value="" style="endArrow=classic;html=1;rounded=0;" edge="1" parent="WIyWlLk6GJQsqaUBKTNV-1">
          <mxGeometry width="50" height="50" relative="1" as="geometry">
            <mxPoint x="398" y="2850" as="sourcePoint" />
            <mxPoint x="398" y="2900" as="targetPoint" />
          </mxGeometry>
        </mxCell>
        <mxCell id="3JXhcpFCu_tkuBNvv-Zm-120" value="kanzi显示" style="rounded=1;whiteSpace=wrap;html=1;fontSize=12;glass=0;strokeWidth=1;shadow=0;" vertex="1" parent="WIyWlLk6GJQsqaUBKTNV-1">
          <mxGeometry x="214" y="3037" width="120" height="40" as="geometry" />
        </mxCell>
        <mxCell id="3JXhcpFCu_tkuBNvv-Zm-121" value="" style="endArrow=classic;html=1;rounded=0;entryX=0.5;entryY=0;entryDx=0;entryDy=0;" edge="1" parent="WIyWlLk6GJQsqaUBKTNV-1">
          <mxGeometry width="50" height="50" relative="1" as="geometry">
            <mxPoint x="397.5" y="2943" as="sourcePoint" />
            <mxPoint x="506.5" y="3037" as="targetPoint" />
            <Array as="points">
              <mxPoint x="397.5" y="2987" />
              <mxPoint x="506.5" y="2987" />
            </Array>
          </mxGeometry>
        </mxCell>
        <mxCell id="3JXhcpFCu_tkuBNvv-Zm-122" value="audio报警音" style="rounded=1;whiteSpace=wrap;html=1;fontSize=12;glass=0;strokeWidth=1;shadow=0;" vertex="1" parent="WIyWlLk6GJQsqaUBKTNV-1">
          <mxGeometry x="445.5" y="3037" width="120" height="40" as="geometry" />
        </mxCell>
        <mxCell id="3JXhcpFCu_tkuBNvv-Zm-123" value="" style="endArrow=classic;html=1;rounded=0;entryX=0.5;entryY=0;entryDx=0;entryDy=0;exitX=0.5;exitY=1;exitDx=0;exitDy=0;" edge="1" parent="WIyWlLk6GJQsqaUBKTNV-1" source="3JXhcpFCu_tkuBNvv-Zm-114" target="3JXhcpFCu_tkuBNvv-Zm-120">
          <mxGeometry width="50" height="50" relative="1" as="geometry">
            <mxPoint x="366.5" y="2943" as="sourcePoint" />
            <mxPoint x="475.5" y="3037" as="targetPoint" />
            <Array as="points">
              <mxPoint x="398.5" y="2987" />
              <mxPoint x="274.5" y="2987" />
            </Array>
          </mxGeometry>
        </mxCell>
        <mxCell id="3JXhcpFCu_tkuBNvv-Zm-124" value="与kanzi通信接口" style="rounded=1;whiteSpace=wrap;html=1;fontSize=12;glass=0;strokeWidth=1;shadow=0;" vertex="1" parent="WIyWlLk6GJQsqaUBKTNV-1">
          <mxGeometry x="266.5" y="3880" width="153" height="40" as="geometry" />
        </mxCell>
        <mxCell id="3JXhcpFCu_tkuBNvv-Zm-126" value="QS_MSG_VI_DshbrdAlgo_VehSpd_INFO" style="rounded=1;whiteSpace=wrap;html=1;fontSize=12;glass=0;strokeWidth=1;shadow=0;" vertex="1" parent="WIyWlLk6GJQsqaUBKTNV-1">
          <mxGeometry x="228.88" y="3440" width="240.75" height="40" as="geometry" />
        </mxCell>
        <mxCell id="3JXhcpFCu_tkuBNvv-Zm-127" value="" style="endArrow=classic;html=1;rounded=0;" edge="1" parent="WIyWlLk6GJQsqaUBKTNV-1">
          <mxGeometry width="50" height="50" relative="1" as="geometry">
            <mxPoint x="343.38" y="3480" as="sourcePoint" />
            <mxPoint x="343.38" y="3530" as="targetPoint" />
          </mxGeometry>
        </mxCell>
        <mxCell id="3JXhcpFCu_tkuBNvv-Zm-130" value="kanzi显示" style="rounded=1;whiteSpace=wrap;html=1;fontSize=12;glass=0;strokeWidth=1;shadow=0;" vertex="1" parent="WIyWlLk6GJQsqaUBKTNV-1">
          <mxGeometry x="159" y="4015" width="120" height="40" as="geometry" />
        </mxCell>
        <mxCell id="3JXhcpFCu_tkuBNvv-Zm-131" value="" style="endArrow=classic;html=1;rounded=0;entryX=0.5;entryY=0;entryDx=0;entryDy=0;" edge="1" parent="WIyWlLk6GJQsqaUBKTNV-1">
          <mxGeometry width="50" height="50" relative="1" as="geometry">
            <mxPoint x="342.5" y="3921" as="sourcePoint" />
            <mxPoint x="451.5" y="4015" as="targetPoint" />
            <Array as="points">
              <mxPoint x="342.5" y="3965" />
              <mxPoint x="451.5" y="3965" />
            </Array>
          </mxGeometry>
        </mxCell>
        <mxCell id="3JXhcpFCu_tkuBNvv-Zm-132" value="audio报警音" style="rounded=1;whiteSpace=wrap;html=1;fontSize=12;glass=0;strokeWidth=1;shadow=0;" vertex="1" parent="WIyWlLk6GJQsqaUBKTNV-1">
          <mxGeometry x="390.5" y="4015" width="120" height="40" as="geometry" />
        </mxCell>
        <mxCell id="3JXhcpFCu_tkuBNvv-Zm-133" value="" style="endArrow=classic;html=1;rounded=0;entryX=0.5;entryY=0;entryDx=0;entryDy=0;exitX=0.5;exitY=1;exitDx=0;exitDy=0;" edge="1" parent="WIyWlLk6GJQsqaUBKTNV-1" source="3JXhcpFCu_tkuBNvv-Zm-124" target="3JXhcpFCu_tkuBNvv-Zm-130">
          <mxGeometry width="50" height="50" relative="1" as="geometry">
            <mxPoint x="311.5" y="3921" as="sourcePoint" />
            <mxPoint x="420.5" y="4015" as="targetPoint" />
            <Array as="points">
              <mxPoint x="343.5" y="3965" />
              <mxPoint x="219.5" y="3965" />
            </Array>
          </mxGeometry>
        </mxCell>
        <mxCell id="3JXhcpFCu_tkuBNvv-Zm-168" value="" style="endArrow=classic;html=1;rounded=0;" edge="1" parent="WIyWlLk6GJQsqaUBKTNV-1">
          <mxGeometry width="50" height="50" relative="1" as="geometry">
            <mxPoint x="344.63" y="3830" as="sourcePoint" />
            <mxPoint x="344.63" y="3880" as="targetPoint" />
          </mxGeometry>
        </mxCell>
        <mxCell id="3JXhcpFCu_tkuBNvv-Zm-172" value="" style="endArrow=classic;html=1;rounded=0;exitX=0.5;exitY=1;exitDx=0;exitDy=0;" edge="1" parent="WIyWlLk6GJQsqaUBKTNV-1" source="3JXhcpFCu_tkuBNvv-Zm-130">
          <mxGeometry width="50" height="50" relative="1" as="geometry">
            <mxPoint x="339.13" y="4325" as="sourcePoint" />
            <mxPoint x="339" y="4220" as="targetPoint" />
            <Array as="points">
              <mxPoint x="219" y="4130" />
              <mxPoint x="339" y="4130" />
              <mxPoint x="339" y="4220" />
            </Array>
          </mxGeometry>
        </mxCell>
        <mxCell id="3JXhcpFCu_tkuBNvv-Zm-173" value="限速开关是否打开" style="rhombus;whiteSpace=wrap;html=1;" vertex="1" parent="WIyWlLk6GJQsqaUBKTNV-1">
          <mxGeometry x="255.13" y="3530" width="180" height="80" as="geometry" />
        </mxCell>
        <mxCell id="3JXhcpFCu_tkuBNvv-Zm-174" value="" style="endArrow=classic;html=1;rounded=0;" edge="1" parent="WIyWlLk6GJQsqaUBKTNV-1">
          <mxGeometry width="50" height="50" relative="1" as="geometry">
            <mxPoint x="344.63" y="3610" as="sourcePoint" />
            <mxPoint x="344.63" y="3660" as="targetPoint" />
          </mxGeometry>
        </mxCell>
        <mxCell id="3JXhcpFCu_tkuBNvv-Zm-192" value="YES" style="edgeLabel;html=1;align=center;verticalAlign=middle;resizable=0;points=[];" vertex="1" connectable="0" parent="3JXhcpFCu_tkuBNvv-Zm-174">
          <mxGeometry x="-0.048" y="2" relative="1" as="geometry">
            <mxPoint as="offset" />
          </mxGeometry>
        </mxCell>
        <mxCell id="3JXhcpFCu_tkuBNvv-Zm-176" value="结束" style="rounded=1;whiteSpace=wrap;html=1;fontSize=12;glass=0;strokeWidth=1;shadow=0;" vertex="1" parent="WIyWlLk6GJQsqaUBKTNV-1">
          <mxGeometry x="279" y="4220" width="120" height="40" as="geometry" />
        </mxCell>
        <mxCell id="3JXhcpFCu_tkuBNvv-Zm-177" value="" style="endArrow=classic;html=1;rounded=0;exitX=0.5;exitY=1;exitDx=0;exitDy=0;entryX=0.5;entryY=0;entryDx=0;entryDy=0;" edge="1" parent="WIyWlLk6GJQsqaUBKTNV-1" source="3JXhcpFCu_tkuBNvv-Zm-132" target="3JXhcpFCu_tkuBNvv-Zm-176">
          <mxGeometry width="50" height="50" relative="1" as="geometry">
            <mxPoint x="340.13" y="4416" as="sourcePoint" />
            <mxPoint x="340.13" y="4466" as="targetPoint" />
            <Array as="points">
              <mxPoint x="451" y="4130" />
              <mxPoint x="339" y="4130" />
            </Array>
          </mxGeometry>
        </mxCell>
        <mxCell id="3JXhcpFCu_tkuBNvv-Zm-178" value="" style="endArrow=classic;html=1;rounded=0;exitX=1;exitY=0.5;exitDx=0;exitDy=0;entryX=1;entryY=0.5;entryDx=0;entryDy=0;" edge="1" parent="WIyWlLk6GJQsqaUBKTNV-1" source="3JXhcpFCu_tkuBNvv-Zm-173" target="3JXhcpFCu_tkuBNvv-Zm-176">
          <mxGeometry width="50" height="50" relative="1" as="geometry">
            <mxPoint x="505.63" y="3600" as="sourcePoint" />
            <mxPoint x="595.63" y="3980" as="targetPoint" />
            <Array as="points">
              <mxPoint x="605.63" y="3570" />
              <mxPoint x="606" y="4240" />
            </Array>
          </mxGeometry>
        </mxCell>
        <mxCell id="3JXhcpFCu_tkuBNvv-Zm-193" value="NO" style="edgeLabel;html=1;align=center;verticalAlign=middle;resizable=0;points=[];" vertex="1" connectable="0" parent="3JXhcpFCu_tkuBNvv-Zm-178">
          <mxGeometry x="-0.8762" y="-4" relative="1" as="geometry">
            <mxPoint as="offset" />
          </mxGeometry>
        </mxCell>
        <mxCell id="3JXhcpFCu_tkuBNvv-Zm-180" value="车速是否超过限速" style="rhombus;whiteSpace=wrap;html=1;" vertex="1" parent="WIyWlLk6GJQsqaUBKTNV-1">
          <mxGeometry x="255.13" y="3660" width="180" height="80" as="geometry" />
        </mxCell>
        <mxCell id="3JXhcpFCu_tkuBNvv-Zm-181" value="" style="endArrow=classic;html=1;rounded=0;" edge="1" parent="WIyWlLk6GJQsqaUBKTNV-1">
          <mxGeometry width="50" height="50" relative="1" as="geometry">
            <mxPoint x="344.63" y="3740" as="sourcePoint" />
            <mxPoint x="344.63" y="3790" as="targetPoint" />
          </mxGeometry>
        </mxCell>
        <mxCell id="3JXhcpFCu_tkuBNvv-Zm-194" value="YES" style="edgeLabel;html=1;align=center;verticalAlign=middle;resizable=0;points=[];" vertex="1" connectable="0" parent="3JXhcpFCu_tkuBNvv-Zm-181">
          <mxGeometry x="-0.528" y="3" relative="1" as="geometry">
            <mxPoint as="offset" />
          </mxGeometry>
        </mxCell>
        <mxCell id="3JXhcpFCu_tkuBNvv-Zm-183" value="" style="endArrow=none;html=1;rounded=0;" edge="1" parent="WIyWlLk6GJQsqaUBKTNV-1">
          <mxGeometry width="50" height="50" relative="1" as="geometry">
            <mxPoint x="435.63" y="3700" as="sourcePoint" />
            <mxPoint x="605.63" y="3700" as="targetPoint" />
          </mxGeometry>
        </mxCell>
        <mxCell id="3JXhcpFCu_tkuBNvv-Zm-184" value="NO" style="edgeLabel;html=1;align=center;verticalAlign=middle;resizable=0;points=[];" vertex="1" connectable="0" parent="3JXhcpFCu_tkuBNvv-Zm-183">
          <mxGeometry x="0.0047" y="3" relative="1" as="geometry">
            <mxPoint as="offset" />
          </mxGeometry>
        </mxCell>
        <mxCell id="3JXhcpFCu_tkuBNvv-Zm-195" value="view模块FIFO处理view_proc中对限速报警进行处理" style="rounded=1;whiteSpace=wrap;html=1;fontSize=12;glass=0;strokeWidth=1;shadow=0;" vertex="1" parent="WIyWlLk6GJQsqaUBKTNV-1">
          <mxGeometry x="207.25" y="3790" width="280" height="40" as="geometry" />
        </mxCell>
        <mxCell id="3JXhcpFCu_tkuBNvv-Zm-196" value="数据是否有效" style="rhombus;whiteSpace=wrap;html=1;" vertex="1" parent="WIyWlLk6GJQsqaUBKTNV-1">
          <mxGeometry x="308.5" y="2680" width="180" height="80" as="geometry" />
        </mxCell>
        <mxCell id="3JXhcpFCu_tkuBNvv-Zm-197" value="" style="endArrow=classic;html=1;rounded=0;" edge="1" parent="WIyWlLk6GJQsqaUBKTNV-1">
          <mxGeometry width="50" height="50" relative="1" as="geometry">
            <mxPoint x="398" y="2760" as="sourcePoint" />
            <mxPoint x="398" y="2810" as="targetPoint" />
          </mxGeometry>
        </mxCell>
        <mxCell id="3JXhcpFCu_tkuBNvv-Zm-199" value="YES" style="edgeLabel;html=1;align=center;verticalAlign=middle;resizable=0;points=[];" vertex="1" connectable="0" parent="3JXhcpFCu_tkuBNvv-Zm-197">
          <mxGeometry x="-0.096" y="1" relative="1" as="geometry">
            <mxPoint x="-3" as="offset" />
          </mxGeometry>
        </mxCell>
        <mxCell id="3JXhcpFCu_tkuBNvv-Zm-200" value="结束" style="rounded=1;whiteSpace=wrap;html=1;fontSize=12;glass=0;strokeWidth=1;shadow=0;" vertex="1" parent="WIyWlLk6GJQsqaUBKTNV-1">
          <mxGeometry x="334" y="3200" width="120" height="40" as="geometry" />
        </mxCell>
        <mxCell id="3JXhcpFCu_tkuBNvv-Zm-201" value="" style="endArrow=classic;html=1;rounded=0;exitX=1;exitY=0.5;exitDx=0;exitDy=0;entryX=1;entryY=0.5;entryDx=0;entryDy=0;" edge="1" parent="WIyWlLk6GJQsqaUBKTNV-1" source="3JXhcpFCu_tkuBNvv-Zm-196" target="3JXhcpFCu_tkuBNvv-Zm-200">
          <mxGeometry width="50" height="50" relative="1" as="geometry">
            <mxPoint x="490" y="2720" as="sourcePoint" />
            <mxPoint x="730" y="3160" as="targetPoint" />
            <Array as="points">
              <mxPoint x="640" y="2720" />
              <mxPoint x="640" y="3220" />
            </Array>
          </mxGeometry>
        </mxCell>
        <mxCell id="3JXhcpFCu_tkuBNvv-Zm-204" value="NO" style="edgeLabel;html=1;align=center;verticalAlign=middle;resizable=0;points=[];" vertex="1" connectable="0" parent="3JXhcpFCu_tkuBNvv-Zm-201">
          <mxGeometry x="-0.8522" y="-3" relative="1" as="geometry">
            <mxPoint as="offset" />
          </mxGeometry>
        </mxCell>
        <mxCell id="3JXhcpFCu_tkuBNvv-Zm-202" value="" style="endArrow=classic;html=1;rounded=0;exitX=0.5;exitY=1;exitDx=0;exitDy=0;entryX=0.5;entryY=0;entryDx=0;entryDy=0;" edge="1" parent="WIyWlLk6GJQsqaUBKTNV-1" source="3JXhcpFCu_tkuBNvv-Zm-120" target="3JXhcpFCu_tkuBNvv-Zm-200">
          <mxGeometry width="50" height="50" relative="1" as="geometry">
            <mxPoint x="280" y="3150" as="sourcePoint" />
            <mxPoint x="330" y="3100" as="targetPoint" />
            <Array as="points">
              <mxPoint x="274" y="3140" />
              <mxPoint x="394" y="3140" />
            </Array>
          </mxGeometry>
        </mxCell>
        <mxCell id="3JXhcpFCu_tkuBNvv-Zm-203" value="" style="endArrow=classic;html=1;rounded=0;entryX=0.5;entryY=0;entryDx=0;entryDy=0;exitX=0.5;exitY=1;exitDx=0;exitDy=0;" edge="1" parent="WIyWlLk6GJQsqaUBKTNV-1" source="3JXhcpFCu_tkuBNvv-Zm-122" target="3JXhcpFCu_tkuBNvv-Zm-200">
          <mxGeometry width="50" height="50" relative="1" as="geometry">
            <mxPoint x="480" y="3170" as="sourcePoint" />
            <mxPoint x="530" y="3120" as="targetPoint" />
            <Array as="points">
              <mxPoint x="506" y="3140" />
              <mxPoint x="394" y="3140" />
            </Array>
          </mxGeometry>
        </mxCell>
      </root>
    </mxGraphModel>
  </diagram>
</mxfile>
